<svg width="16" height="10" viewBox="0 0 16 10" fill="none" xmlns="http://www.w3.org/2000/svg">
<path d="M15.1214 0.785131C15.1219 0.773504 15.1222 0.761808 15.1222 0.750049C15.1222 0.335836 14.7864 5.21131e-05 14.3722 5.21493e-05L8.39805 7.17451e-05C7.98384 7.30878e-05 7.64806 0.335861 7.64806 0.750075C7.64806 1.16429 7.98385 1.50007 8.39806 1.50007L12.7405 1.50006L9.06455 5.6064L6.57746 2.82811C6.43999 2.67455 6.24539 2.58432 6.03937 2.57863C5.83335 2.57294 5.63406 2.65227 5.48833 2.79801L0.219673 8.06659C-0.0732217 8.35948 -0.073225 8.83436 0.219666 9.12725C0.512557 9.42015 0.987431 9.42015 1.28033 9.12726L5.98851 4.41914L8.50575 7.2311C8.64802 7.39004 8.85124 7.48087 9.06455 7.48087C9.27786 7.48087 9.48108 7.39003 9.62336 7.2311L13.6214 2.765L13.6213 6.72425C13.6213 7.13847 13.9571 7.47425 14.3713 7.47426C14.7856 7.47426 15.1213 7.13847 15.1213 6.72426L15.1214 0.785131Z" fill="#00B7C9"/>
</svg>
