<svg width="44" height="14" viewBox="0 0 44 14" fill="none" xmlns="http://www.w3.org/2000/svg">
<path d="M0 8.86704V2.65039H3.11593C3.70902 2.65039 4.0905 2.79314 4.26038 3.07865C4.43324 3.36415 4.51967 3.69417 4.51967 4.06871C4.51967 4.45552 4.4392 4.78861 4.27826 5.06798C4.11732 5.34427 3.88486 5.49009 3.58086 5.50544C3.89976 5.52386 4.15458 5.67736 4.34532 5.96594C4.53904 6.25451 4.6359 6.62751 4.6359 7.08493C4.6359 7.60376 4.54798 8.03048 4.37214 8.3651C4.19928 8.69973 3.82525 8.86704 3.25005 8.86704H0ZM0.91198 8.21314H3.01758C3.27985 8.21314 3.46165 8.1103 3.56298 7.90461C3.66729 7.69585 3.71945 7.39193 3.71945 6.99284C3.71945 6.62137 3.65537 6.3328 3.52722 6.12711C3.40204 5.91835 3.17256 5.81397 2.83876 5.81397H0.91198V8.21314ZM0.91198 5.22915H2.78512C3.08911 5.22915 3.30071 5.13398 3.41993 4.94364C3.53914 4.75024 3.59875 4.50157 3.59875 4.19765C3.59875 3.91521 3.54957 3.69571 3.45122 3.53914C3.35287 3.3795 3.16511 3.29968 2.88794 3.29968H0.91198V5.22915Z" fill="#B3B3B3"/>
<path d="M9.14517 4.30988L9.14151 4.31932L7.70275 8.19764L7.54899 8.6527L7.40804 8.19764L6.00406 4.30799H5.09981L6.76005 8.83963H7.46662L7.06391 9.92533H5.76427V10.6504H6.52026C6.86622 10.6504 7.1353 10.6032 7.3275 10.5069C7.52153 10.4087 7.67346 10.2671 7.78512 10.0802C7.89678 9.89323 8.02308 9.61189 8.1622 9.23803L10 4.30799H9.147L9.14517 4.30988Z" fill="#B3B3B3"/>
<path d="M9.14517 4.30988L9.14151 4.31932L7.70275 8.19764L7.54899 8.6527L7.40804 8.19764L6.00406 4.30799H5.09981L6.76005 8.83963H7.46662L7.06391 9.92533H5.76427V10.6504H6.52026C6.86622 10.6504 7.1353 10.6032 7.3275 10.5069C7.52153 10.4087 7.67346 10.2671 7.78512 10.0802C7.89678 9.89323 8.02308 9.61189 8.1622 9.23803L10 4.30799H9.147L9.14517 4.30988Z" fill="#B3B3B3"/>
<path d="M14.4671 8.2619C15.2654 8.2619 15.8686 8.08631 15.8686 7.2291C15.8686 6.60979 15.4887 6.34545 14.9225 6.2586L13.623 6.05846C12.6559 5.91307 12.1706 5.37307 12.1706 4.43656C12.1706 3.17151 13.1869 2.65039 14.3651 2.65039C15.1142 2.65039 15.6769 2.82787 16.0567 3.18095C16.4365 3.53403 16.6458 4.0004 16.6862 4.58194H15.8422C15.7402 3.72662 15.1722 3.37732 14.3563 3.37732C13.9167 3.37732 13.5896 3.46984 13.3733 3.65299C13.157 3.83802 13.048 4.08914 13.048 4.41012C13.048 4.91237 13.3382 5.18426 13.7989 5.26167L15.174 5.4788C16.3416 5.65817 16.7443 6.2737 16.7443 7.11014C16.7443 8.36008 15.9846 8.98694 14.4653 8.98694C13.6107 8.98694 12.9847 8.78302 12.5908 8.37519C12.1969 7.96735 12 7.45001 12 6.82126H12.844C12.8722 7.78232 13.412 8.2619 14.4653 8.2619H14.4671Z" fill="#B3B3B3"/>
<path d="M27.0241 4.91614C26.0393 4.91614 25.8248 5.87342 25.8248 6.92888V8.84156H24.9984V6.09622C24.9984 5.37684 24.7733 4.91803 24.1033 4.91803C23.1239 4.91803 22.9041 5.88097 22.9041 6.93077V8.84344H22.06V4.31194H22.9041V5.29943C23.1854 4.54418 23.6813 4.16656 24.3899 4.16656C25.0986 4.16656 25.5997 4.52152 25.765 5.33531C26.0464 4.55551 26.5616 4.16656 27.3089 4.16656C28.2761 4.16656 28.7614 4.78208 28.7614 6.01503V8.84344H27.9174V6.09811C27.9174 5.37496 27.6888 4.91992 27.0223 4.91992L27.0241 4.91614Z" fill="#B3B3B3"/>
<path d="M34.5115 4.91614C33.5268 4.91614 33.3122 5.87342 33.3122 6.92888V8.84156H32.484V6.09622C32.484 5.37684 32.2589 4.91803 31.589 4.91803C30.6113 4.91803 30.3897 5.87909 30.3897 6.93077V8.84344H29.5457V4.31194H30.3897V5.29943C30.6711 4.54418 31.1669 4.16656 31.8756 4.16656C32.5842 4.16656 33.0854 4.5253 33.2507 5.33531C33.532 4.55551 34.0473 4.16656 34.7946 4.16656C35.7617 4.16656 36.2471 4.78208 36.2471 6.01503V8.84344H35.403V6.09811C35.403 5.37873 35.1779 4.91992 34.508 4.91992L34.5115 4.91614Z" fill="#B3B3B3"/>
<path d="M38.373 6.56636C38.373 5.16915 39.1432 4.16467 40.5499 4.16467C41.9567 4.16467 42.7269 5.15216 42.7269 6.56636C42.7269 7.98057 41.9655 8.98694 40.5499 8.98694C39.1344 8.98694 38.373 7.96924 38.373 6.56636ZM40.5499 8.2619C41.5523 8.2619 41.8758 7.66148 41.8758 6.5758C41.8758 5.49013 41.554 4.88971 40.5499 4.88971C39.5459 4.88971 39.2241 5.48824 39.2241 6.5758C39.2241 7.66336 39.5459 8.2619 40.5499 8.2619Z" fill="#B3B3B3"/>
<path d="M36.9698 2.81466H37.856V3.63033H36.9698V2.81466ZM36.9909 4.31005H37.8349V8.84156H36.9909V4.31005Z" fill="#B3B3B3"/>
<path d="M42.9994 2.81466V2.96193H42.7357V3.63033H42.5704V2.96193H42.3066V2.81466H42.9994ZM43.0962 2.81466H43.3318L43.5428 3.38487H43.5551L43.7644 2.81466H44V3.63033H43.84V3.07144H43.8277L43.6202 3.63033H43.4795L43.272 3.07144H43.2597V3.63033H43.0997V2.81466H43.0962Z" fill="#B3B3B3"/>
<path d="M20.8714 4.31006L20.8679 4.3195L19.4858 8.19772L19.3381 8.65275L19.2027 8.19772L17.854 4.30818H16.9853L18.5802 8.83968H19.259L18.8721 9.92535H17.6236V10.6504H18.3499C18.6822 10.6504 18.9407 10.6032 19.1253 10.5069C19.3117 10.4087 19.4577 10.2671 19.5649 10.0802C19.6722 9.89325 19.7935 9.61192 19.9272 9.23807L21.6926 4.30818H20.8732L20.8714 4.31006Z" fill="#B3B3B3"/>
</svg>
