<svg width="16" height="16" viewBox="0 0 16 16" fill="none" xmlns="http://www.w3.org/2000/svg">
<path d="M6.00049 3.33333V6M6.00049 10V11.3333M11.3338 2V3.33333M11.3338 8.66667V10.6667M2.00049 2V12.6667C2.00049 13.0203 2.14096 13.3594 2.39101 13.6095C2.64106 13.8595 2.9802 14 3.33382 14H14.0005M5.33382 6H6.66716C7.03534 6 7.33382 6.29848 7.33382 6.66667V9.33333C7.33382 9.70152 7.03534 10 6.66716 10H5.33382C4.96563 10 4.66716 9.70152 4.66716 9.33333V6.66667C4.66716 6.29848 4.96563 6 5.33382 6ZM10.6672 3.33333H12.0005C12.3687 3.33333 12.6672 3.63181 12.6672 4V8C12.6672 8.36819 12.3687 8.66667 12.0005 8.66667H10.6672C10.299 8.66667 10.0005 8.36819 10.0005 8V4C10.0005 3.63181 10.299 3.33333 10.6672 3.33333Z" stroke="#9597B6" stroke-width="1.5" stroke-linecap="round" stroke-linejoin="round"/>
</svg>
