<svg width="62" height="62" viewBox="0 0 62 62" fill="none" xmlns="http://www.w3.org/2000/svg">
<g clip-path="url(#clip0_1743_76721)">
<path d="M45.5251 46.5085C42.5541 46.5083 40.137 44.0914 40.137 41.1205V32.1725C40.137 29.2016 42.5541 26.7846 45.5251 26.7846H59.5644C59.6494 26.7846 59.7339 26.7872 59.818 26.791V17.8774C59.818 15.5829 57.958 13.7229 55.6636 13.7229H4.1546C1.86001 13.7228 0 15.5828 0 17.8772V55.4156C0 57.71 1.86001 59.5702 4.1546 59.5702H55.6636C57.958 59.5702 59.818 57.7102 59.818 55.4156V46.502C59.7339 46.5059 59.6494 46.5085 59.5644 46.5085H45.5251Z" fill="white"/>
<path d="M59.5648 29.7371H45.5255C44.1803 29.7371 43.0898 30.8276 43.0898 32.1727V41.1206C43.0898 42.4657 44.1803 43.5562 45.5255 43.5562H59.5648C60.9099 43.5562 62.0004 42.4659 62.0004 41.1206V32.1727C62.0004 30.8274 60.9099 29.7371 59.5648 29.7371ZM50.3632 40.162C48.4216 40.162 46.8477 38.5881 46.8477 36.6465C46.8477 34.705 48.4216 33.1311 50.3632 33.1311C52.3047 33.1311 53.8786 34.705 53.8786 36.6465C53.8786 38.5881 52.3047 40.162 50.3632 40.162Z" fill="white"/>
<path d="M48.4296 6.11287C47.5001 3.2996 44.466 1.77249 41.6529 2.70195L20.5469 9.67483H49.6063L48.4296 6.11287Z" fill="white"/>
</g>
<defs>
<clipPath id="clip0_1743_76721">
<rect width="62" height="62" fill="white"/>
</clipPath>
</defs>
</svg>
