<svg width="32" height="32" viewBox="0 0 32 32" fill="none" xmlns="http://www.w3.org/2000/svg">
<g clip-path="url(#clip0_857_13209)">
<path d="M14.1995 15.7344L15.7345 14.1993C15.8813 14.0526 16.1191 14.0526 16.2659 14.1993L17.801 15.7344C17.9477 15.8811 17.9477 16.119 17.801 16.2658L16.2659 17.8008C16.1191 17.9476 15.8813 17.9476 15.7345 17.8008L14.1995 16.2658C14.0527 16.119 14.0527 15.8811 14.1995 15.7344Z" fill="#8AABB2"/>
<path fill-rule="evenodd" clip-rule="evenodd" d="M15.7343 0.110043L0.110044 15.7343C-0.0366811 15.8811 -0.0366813 16.1189 0.110043 16.2657L15.7343 31.89C15.8811 32.0367 16.1189 32.0367 16.2657 31.89L31.89 16.2657C32.0367 16.1189 32.0367 15.8811 31.89 15.7343L16.2657 0.110043C16.1189 -0.0366811 15.8811 -0.036681 15.7343 0.110043ZM13.6638 5.59664L16.0718 8.00461L18.4797 5.59666C20.3641 6.03094 22.1535 6.98217 23.6217 8.45037C25.09 9.91862 26.0412 11.7081 26.4755 13.5926L24.0675 16.0006L26.4754 18.4085C26.0411 20.2928 25.0899 22.0822 23.6217 23.5504C22.1534 25.0187 20.3639 25.9699 18.4793 26.4042L16.0716 23.9965L13.6639 26.4041C11.7794 25.9699 9.98997 25.0186 8.52171 23.5504C7.0535 22.0822 6.10226 20.2927 5.66799 18.4083L8.07575 16.0006L5.66791 13.5927C6.10215 11.7082 7.05341 9.91866 8.52171 8.45037C9.98993 6.98214 11.7794 6.0309 13.6638 5.59664Z" fill="#8AABB2"/>
</g>
<defs>
<clipPath id="clip0_857_13209">
<rect width="32" height="32" fill="white"/>
</clipPath>
</defs>
</svg>
