<svg width="16" height="16" viewBox="0 0 16 16" fill="none" xmlns="http://www.w3.org/2000/svg">
<path d="M15.8502 6.33852C15.5912 4.60202 14.002 0.929746 9.71712 0.132664C5.5207 -0.647967 2.45465 2.20287 1.37403 3.81836C2.53091 2.74532 4.94193 1.30806 7.46924 3.20712C8.77419 4.18769 10.0491 6.46597 11.3267 9.28487C15.0787 17.5631 16.4935 10.6513 15.8502 6.33852Z" fill="url(#paint0_radial_683_4)"/>
<path d="M3.61154 5.42756C3.27852 3.44625 4.45334 2.47646 5.11013 2.29617C3.61154 2.18229 0.781084 3.16442 0.142797 6.31005C-0.456372 9.26289 0.97514 10.9122 1.75219 11.4199C2.22397 11.6856 3.71317 12.1242 5.91111 11.8281C8.65852 11.4581 9.91118 12.6725 10.383 13.1849C10.8547 13.6973 12.0542 15.4467 11.8538 14.8929C11.059 12.6964 9.91124 11.9181 9.63372 11.6049C9.41171 11.3544 7.36728 9.83524 6.38672 9.11407C5.63359 8.56017 3.94456 7.40888 3.61154 5.42756Z" fill="url(#paint1_linear_683_4)"/>
<path d="M11.8677 14.9783C10.9751 14.1433 8.67353 12.4419 6.6088 12.3166C4.0279 12.16 3.09821 11.975 2.15466 11.6192C1.7606 11.4705 1.67693 11.3742 1.66636 11.3602C1.66489 11.359 1.66444 11.3584 1.6651 11.3584C1.6651 11.3584 1.66547 11.359 1.66636 11.3602C1.68466 11.3746 1.85996 11.4729 1.9604 11.5053C2.18704 11.6239 2.90548 11.8566 3.92674 11.9135C4.71849 11.9576 5.48826 11.8469 6.1885 11.7854C6.61728 11.7477 6.71578 11.7285 7.35407 11.7712C7.44696 11.7774 7.82544 11.8216 8.17274 11.8993C8.39809 11.9497 8.68615 12.0416 8.98158 12.16C9.593 12.4051 10.3374 13.038 10.6189 13.4411L11.8677 14.9783Z" fill="url(#paint2_linear_683_4)"/>
<defs>
<radialGradient id="paint0_radial_683_4" cx="0" cy="0" r="1" gradientUnits="userSpaceOnUse" gradientTransform="translate(3.13881 1.78461) rotate(68.8028) scale(23.8221 25.9173)">
<stop offset="0.21" stop-color="#00B7C9"/>
<stop offset="1" stop-color="#F59DEF"/>
</radialGradient>
<linearGradient id="paint1_linear_683_4" x1="16.0021" y1="14.5492" x2="7.93976" y2="-0.766855" gradientUnits="userSpaceOnUse">
<stop offset="0.6" stop-color="#F59DEF"/>
<stop offset="0.97" stop-color="#090D28"/>
</linearGradient>
<linearGradient id="paint2_linear_683_4" x1="1.4382" y1="10.9756" x2="11.9705" y2="15.5577" gradientUnits="userSpaceOnUse">
<stop stop-color="#F59DEF"/>
<stop offset="1" stop-color="#00B7C9"/>
</linearGradient>
</defs>
</svg>
