<svg width="16" height="16" viewBox="0 0 16 16" fill="none" xmlns="http://www.w3.org/2000/svg">
<path d="M8.99958 4.16671C8.99958 2.6019 7.73105 1.33337 6.16622 1.33337C4.60141 1.33337 3.33289 2.6019 3.33289 4.16671C3.33289 5.73151 4.60141 7.00004 6.16622 7.00004C7.73105 7.00004 8.99958 5.73151 8.99958 4.16671Z" fill="#7DADB1"/>
<path d="M11.8329 4.16671C11.8329 3.15419 11.012 2.33337 9.99958 2.33337C9.72338 2.33337 9.49958 2.10951 9.49958 1.83337C9.49958 1.55723 9.72338 1.33337 9.99958 1.33337C11.5644 1.33337 12.8329 2.6019 12.8329 4.16671C12.8329 5.73151 11.5644 7.00004 9.99958 7.00004C9.72338 7.00004 9.49958 6.77617 9.49958 6.50004C9.49958 6.2239 9.72338 6.00004 9.99958 6.00004C11.012 6.00004 11.8329 5.17923 11.8329 4.16671Z" fill="#7DADB1"/>
<path d="M11.627 13.4223C11.3098 13.7718 10.8353 13.9792 10.3327 13.9792H1.99935C1.49669 13.9792 1.02226 13.7718 0.705067 13.4223C0.379886 13.0639 0.223339 12.554 0.391977 12.0167C1.10957 9.73037 3.43835 8.00004 6.16601 8.00004C8.89371 8.00004 11.2224 9.73037 11.94 12.0167C12.1087 12.554 11.9521 13.0639 11.627 13.4223Z" fill="#7DADB1"/>
<path d="M14.1664 14C14.6691 14 15.1435 13.7926 15.4603 13.4428C15.7852 13.0839 15.9406 12.5736 15.77 12.0366C15.268 10.4559 13.9862 9.11997 12.3334 8.53457C12.0731 8.44237 11.7874 8.57864 11.6952 8.83891C11.603 9.09924 11.7392 9.38497 11.9995 9.47717C13.3626 9.95997 14.4114 11.0626 14.8169 12.3393C14.8692 12.5041 14.8292 12.6498 14.719 12.7716C14.6007 12.9022 14.4002 13 14.1664 13H13.8331C13.557 13 13.3331 13.2238 13.3331 13.5C13.3331 13.7761 13.557 14 13.8331 14H14.1664Z" fill="#7DADB1"/>
</svg>
