<svg width="16" height="16" viewBox="0 0 16 16" fill="none" xmlns="http://www.w3.org/2000/svg">
<path fill-rule="evenodd" clip-rule="evenodd" d="M8 0C3.58172 0 0 3.58172 0 8C0 12.4183 3.58172 16 8 16C12.4183 16 16 12.4183 16 8C16 3.58172 12.4183 0 8 0ZM6.15795 4.47058C6.15795 4.21069 5.92232 4 5.63165 4C5.34098 4 5.10534 4.21069 5.10534 4.47058V4.94116H3.52644C3.23577 4.94116 3.00014 5.15185 3.00014 5.41175C3.00014 5.67164 3.23577 5.88233 3.52644 5.88233H3.85672C4.02115 6.78191 4.34548 7.54085 4.8752 8.14997C4.48 8.39693 3.99427 8.58677 3.39878 8.71989C3.11679 8.7829 2.94534 9.03838 3.01584 9.29052C3.08633 9.54266 3.37209 9.69598 3.65407 9.63292C4.42287 9.46106 5.08384 9.19636 5.63161 8.82112C6.1794 9.19636 6.84037 9.46111 7.60924 9.63297C7.89124 9.69602 8.17697 9.54271 8.24744 9.29057C8.31796 9.03843 8.14649 8.78295 7.8645 8.71989C7.26899 8.58681 6.78327 8.39698 6.38805 8.14997C6.91779 7.54085 7.24215 6.78192 7.40657 5.88233H7.73687C8.0275 5.88233 8.26317 5.67164 8.26317 5.41175C8.26317 5.15185 8.0275 4.94116 7.73687 4.94116H6.15795V4.47058ZM5.63163 7.48292C5.30202 7.07158 5.06532 6.54785 4.92533 5.88233H6.33796C6.19796 6.54785 5.96126 7.07158 5.63163 7.48292ZM11.3385 7.90621C10.9768 7.13829 9.75987 7.13829 9.39825 7.90621L7.77808 11.3467C7.6653 11.5862 7.79103 11.8622 8.05892 11.963C8.3268 12.0639 8.63543 11.9514 8.74821 11.7119L9.05578 11.0587H11.6809L11.9885 11.7119C12.1013 11.9514 12.4099 12.0639 12.6778 11.963C12.9457 11.8622 13.0714 11.5862 12.9586 11.3467L11.3385 7.90621ZM11.2377 10.1176H9.49898L10.3684 8.27143L11.2377 10.1176Z" fill="white"/>
</svg>
