<svg width="16" height="16" viewBox="0 0 16 16" fill="none" xmlns="http://www.w3.org/2000/svg">
<path d="M3.99967 9.33333C3.99967 6.25435 6.31889 3.71704 9.30567 3.37304C8.46074 2.52489 7.29147 2 5.99967 2C3.42235 2 1.33301 4.08934 1.33301 6.66667C1.33301 8.61773 2.5303 10.2891 4.23022 10.9862C4.08007 10.4611 3.99967 9.9066 3.99967 9.33333Z" fill="#02001B"/>
<path fill-rule="evenodd" clip-rule="evenodd" d="M9.99967 14C12.577 14 14.6663 11.9107 14.6663 9.33335C14.6663 6.75602 12.577 4.66669 9.99967 4.66669C7.42234 4.66669 5.33301 6.75602 5.33301 9.33335C5.33301 11.9107 7.42234 14 9.99967 14ZM10.6663 8.00002C10.6663 7.63182 10.3679 7.33335 9.99967 7.33335C9.63147 7.33335 9.33301 7.63182 9.33301 8.00002V8.66669H8.66634C8.29814 8.66669 7.99967 8.96515 7.99967 9.33335C7.99967 9.70155 8.29814 10 8.66634 10H9.33301V10.6667C9.33301 11.0349 9.63147 11.3334 9.99967 11.3334C10.3679 11.3334 10.6663 11.0349 10.6663 10.6667V10H11.333C11.7012 10 11.9997 9.70155 11.9997 9.33335C11.9997 8.96515 11.7012 8.66669 11.333 8.66669H10.6663V8.00002Z" fill="#02001B"/>
</svg>
