<svg width="16" height="16" viewBox="0 0 16 16" fill="none" xmlns="http://www.w3.org/2000/svg">
<path d="M3.99992 9.33333C3.99992 6.25435 6.31914 3.71704 9.30592 3.37304C8.46098 2.52489 7.29172 2 5.99992 2C3.42259 2 1.33325 4.08934 1.33325 6.66667C1.33325 8.61773 2.53055 10.2891 4.23047 10.9862C4.08032 10.4611 3.99992 9.9066 3.99992 9.33333Z" fill="white"/>
<path fill-rule="evenodd" clip-rule="evenodd" d="M9.99992 14C12.5773 14 14.6666 11.9106 14.6666 9.33329C14.6666 6.75596 12.5773 4.66663 9.99992 4.66663C7.42259 4.66663 5.33325 6.75596 5.33325 9.33329C5.33325 11.9106 7.42259 14 9.99992 14ZM10.6666 7.99996C10.6666 7.63176 10.3681 7.33329 9.99992 7.33329C9.63172 7.33329 9.33325 7.63176 9.33325 7.99996V8.66663H8.66659C8.29839 8.66663 7.99992 8.96509 7.99992 9.33329C7.99992 9.70149 8.29839 9.99996 8.66659 9.99996H9.33325V10.6666C9.33325 11.0348 9.63172 11.3333 9.99992 11.3333C10.3681 11.3333 10.6666 11.0348 10.6666 10.6666V9.99996H11.3333C11.7015 9.99996 11.9999 9.70149 11.9999 9.33329C11.9999 8.96509 11.7015 8.66663 11.3333 8.66663H10.6666V7.99996Z" fill="white"/>
</svg>
