<svg width="98" height="24" viewBox="0 0 98 24" fill="none" xmlns="http://www.w3.org/2000/svg">
<path d="M23.9787 10.2731C23.5869 7.69138 21.1826 2.23159 14.7003 1.04651C8.35187 -0.1141 3.71346 4.12442 2.07867 6.52627C3.82883 4.9309 7.47629 2.79405 11.2997 5.6175C13.2738 7.07537 15.2025 10.4626 17.1354 14.6537C22.8116 26.9615 24.9519 16.6852 23.9787 10.2731Z" fill="url(#paint0_radial_608_4343)"/>
<path d="M5.46364 8.91877C4.95984 5.97302 6.73715 4.53119 7.73076 4.26313C5.46364 4.09383 1.18165 5.55402 0.216027 10.2308C-0.690412 14.621 1.47522 17.0732 2.65076 17.828C3.36448 18.223 5.61739 18.8751 8.94249 18.4349C13.0989 17.8847 14.9939 19.6902 15.7076 20.4521C16.4214 21.2139 18.2359 23.8149 17.9328 22.9915C16.7304 19.7258 14.994 18.5686 14.5742 18.1031C14.2383 17.7306 11.1454 15.4719 9.662 14.3997C8.52265 13.5762 5.96744 11.8645 5.46364 8.91877Z" fill="url(#paint1_linear_608_4343)"/>
<path d="M17.9539 23.1184C16.6034 21.8769 13.1216 19.3474 9.99798 19.1611C6.09351 18.9284 4.68707 18.6532 3.25963 18.1242C2.66349 17.9033 2.53691 17.76 2.52091 17.7392C2.5187 17.7375 2.518 17.7366 2.51901 17.7366C2.51901 17.7366 2.51958 17.7374 2.52091 17.7392C2.5486 17.7606 2.81381 17.9067 2.96574 17.9549C3.30861 18.1313 4.39549 18.4772 5.94048 18.5618C7.13827 18.6275 8.30279 18.4628 9.36213 18.3714C10.0108 18.3154 10.1598 18.2867 11.1254 18.3502C11.266 18.3595 11.8385 18.4251 12.364 18.5407C12.7049 18.6156 13.1407 18.7523 13.5876 18.9284C14.5126 19.2928 15.6387 20.2336 16.0646 20.8329L17.9539 23.1184Z" fill="url(#paint2_linear_608_4343)"/>
<path d="M90.2196 18.7987L89.2188 4.8739H90.5677L90.8897 10.2524L91.2553 17.5977H91.6469L91.9689 10.2524L92.5346 4.96093H94.6929L95.2673 10.2524L95.5545 17.5977H95.9462L96.3291 10.2524L96.6598 4.8739H98.0001L96.9905 18.7987H94.6146L94.1969 14.3167L93.8313 6.12713H93.3875L93.0133 14.3167L92.5868 18.7987H90.2196Z" fill="#D7E1E7"/>
<path d="M84.4058 18.9291C83.5355 18.9291 82.9089 18.7435 82.5259 18.3721C82.1488 17.995 81.9515 17.3742 81.9341 16.5097C81.9225 15.709 81.9109 14.9228 81.8993 14.1512C81.8935 13.3795 81.8906 12.6078 81.8906 11.8362C81.8906 11.0645 81.8935 10.2928 81.8993 9.52117C81.9109 8.74951 81.9225 7.96334 81.9341 7.16266C81.9515 6.29816 82.1488 5.68025 82.5259 5.30892C82.9089 4.93179 83.5355 4.74323 84.4058 4.74323C85.2703 4.74323 85.8911 4.93179 86.2682 5.30892C86.6512 5.68025 86.8484 6.29816 86.86 7.16266C86.8774 7.96334 86.8891 8.75241 86.8949 9.52988C86.9065 10.3073 86.9123 11.079 86.9123 11.8449C86.9123 12.6107 86.9065 13.3795 86.8949 14.1512C86.8891 14.9228 86.8774 15.709 86.86 16.5097C86.8484 17.3742 86.6512 17.995 86.2682 18.3721C85.8911 18.7435 85.2703 18.9291 84.4058 18.9291ZM84.4058 17.7977C84.8003 17.7977 85.0846 17.7165 85.2587 17.554C85.4327 17.3858 85.5227 17.1102 85.5285 16.7273C85.5517 15.9034 85.5662 15.0824 85.572 14.2643C85.5836 13.4404 85.5894 12.6194 85.5894 11.8014C85.5894 10.9833 85.5836 10.171 85.572 9.36452C85.5604 8.55224 85.5459 7.74576 85.5285 6.94508C85.5227 6.56215 85.4298 6.28656 85.25 6.1183C85.0759 5.95004 84.7945 5.86591 84.4058 5.86591C84.0171 5.86591 83.7328 5.95004 83.5529 6.1183C83.3788 6.28656 83.286 6.56215 83.2744 6.94508C83.2512 7.74576 83.2338 8.55224 83.2222 9.36452C83.2106 10.171 83.2048 10.9833 83.2048 11.8014C83.2106 12.6194 83.2193 13.4404 83.2309 14.2643C83.2425 15.0824 83.257 15.9034 83.2744 16.7273C83.286 17.1102 83.3788 17.3858 83.5529 17.554C83.7328 17.7165 84.0171 17.7977 84.4058 17.7977Z" fill="#D7E1E7"/>
<path d="M75.8013 18.7987V4.8739H77.1328V17.5977H79.9961V18.7987H75.8013Z" fill="#D7E1E7"/>
<path d="M69.3853 18.7987V4.8739H73.5801V6.07492H70.7168V11.1749H73.406V12.3759H70.7168V18.7987H69.3853Z" fill="#D7E1E7"/>
<path d="M62 18.7987V4.8739H64.2715C65.1244 4.8739 65.7423 5.05957 66.1252 5.43089C66.5082 5.80222 66.717 6.41433 66.7518 7.26723C66.7693 7.7604 66.7809 8.22456 66.7867 8.65971C66.7925 9.09486 66.7925 9.5184 66.7867 9.93034C66.7809 10.3365 66.7693 10.7455 66.7518 11.1575C66.7286 11.7435 66.6242 12.2134 66.4385 12.5674C66.2529 12.9213 65.9657 13.1766 65.5769 13.3332L67.0129 18.7987H65.5856L64.2976 13.5595H63.3316V18.7987H62ZM63.3316 12.3585H64.2628C64.6515 12.3585 64.9358 12.2656 65.1157 12.08C65.2955 11.8943 65.3942 11.6071 65.4116 11.2184C65.429 10.7832 65.4406 10.3394 65.4464 9.88683C65.4522 9.43427 65.4522 8.98462 65.4464 8.53786C65.4406 8.08531 65.429 7.64145 65.4116 7.20631C65.3942 6.81757 65.2955 6.53327 65.1157 6.35341C64.9416 6.16775 64.6602 6.07492 64.2715 6.07492H63.3316V12.3585Z" fill="#D7E1E7"/>
<path d="M55.4653 18.7987V4.8739H59.6602V6.07492H56.7969V11.1749H59.4861V12.3759H56.7969V17.5977H59.6602V18.7987H55.4653Z" fill="#D7E1E7"/>
<path d="M48.2847 18.7987V4.8739H50.5562C51.4091 4.8739 52.027 5.05957 52.4099 5.43089C52.7928 5.80222 53.0017 6.41433 53.0365 7.26723C53.0597 8.00988 53.0713 8.67711 53.0713 9.26892C53.0713 9.85492 53.0597 10.4612 53.0365 11.0878C53.0017 11.9407 52.7899 12.5528 52.4012 12.9242C52.0183 13.2955 51.4003 13.4812 50.5475 13.4812H49.6162V18.7987H48.2847ZM49.6162 12.2802H50.5475C50.9362 12.2802 51.2205 12.1902 51.4003 12.0104C51.5802 11.8247 51.6788 11.5375 51.6962 11.1488C51.7137 10.7136 51.7253 10.2756 51.7311 9.83461C51.7369 9.39366 51.7369 8.95561 51.7311 8.52046C51.7253 8.07951 51.7137 7.64145 51.6962 7.20631C51.6788 6.81757 51.5802 6.53327 51.4003 6.35341C51.2263 6.16775 50.9449 6.07492 50.5562 6.07492H49.6162V12.2802Z" fill="#D7E1E7"/>
<path d="M43.1391 18.9292C42.2687 18.9292 41.645 18.7436 41.2679 18.3723C40.8966 17.9951 40.7051 17.3743 40.6935 16.5098C40.6703 14.5777 40.6587 12.6399 40.6587 10.6962C40.6587 8.74674 40.6703 6.80597 40.6935 4.8739H42.0251C42.0135 6.16195 42.0019 7.4732 41.9903 8.80766C41.9845 10.1363 41.9845 11.465 41.9903 12.7936C41.9961 14.1223 42.0048 15.4335 42.0164 16.7274C42.0164 17.0929 42.1092 17.3627 42.2949 17.5368C42.4805 17.7108 42.7619 17.7979 43.1391 17.7979C43.5162 17.7979 43.7918 17.7108 43.9658 17.5368C44.1457 17.3627 44.2356 17.0929 44.2356 16.7274C44.2472 15.4335 44.2559 14.1223 44.2617 12.7936C44.2733 11.465 44.2762 10.1363 44.2704 8.80766C44.2704 7.4732 44.2588 6.16195 44.2356 4.8739H45.5759C45.5991 6.80597 45.6107 8.74674 45.6107 10.6962C45.6107 12.6399 45.5991 14.5777 45.5759 16.5098C45.5701 17.3743 45.3786 17.9951 45.0015 18.3723C44.6244 18.7436 44.0035 18.9292 43.1391 18.9292Z" fill="#D7E1E7"/>
<path d="M35.778 18.9291C34.9193 18.9291 34.3014 18.7376 33.9243 18.3547C33.5529 17.9718 33.3499 17.3452 33.315 16.4749C33.3092 16.1384 33.3034 15.8279 33.2976 15.5436C33.2976 15.2535 33.3005 14.9663 33.3063 14.6821C33.3179 14.392 33.3295 14.0786 33.3412 13.7421H34.6205C34.5973 14.2411 34.5828 14.7401 34.577 15.239C34.577 15.738 34.5915 16.2225 34.6205 16.6924C34.6379 17.0696 34.7365 17.3481 34.9164 17.5279C35.0963 17.7078 35.3806 17.7977 35.7693 17.7977C36.1522 17.7977 36.4249 17.7078 36.5874 17.5279C36.7556 17.3481 36.8543 17.0696 36.8833 16.6924C36.9007 16.3791 36.9123 16.1006 36.9181 15.857C36.9239 15.6075 36.921 15.3522 36.9094 15.0911C36.9036 14.8242 36.8949 14.5225 36.8833 14.186C36.8659 13.774 36.802 13.4288 36.6918 13.1503C36.5816 12.8718 36.364 12.6891 36.0391 12.602L35.0643 12.3496C34.6002 12.2336 34.2405 12.0595 33.9852 11.8275C33.7357 11.5954 33.5587 11.2937 33.4543 10.9224C33.3557 10.5452 33.2976 10.0869 33.2802 9.54728C33.2744 9.18756 33.2744 8.79882 33.2802 8.38108C33.286 7.96334 33.2918 7.5601 33.2976 7.17136C33.315 6.59116 33.405 6.1241 33.5674 5.77018C33.7299 5.41046 33.991 5.14937 34.3507 4.98691C34.7104 4.82445 35.1833 4.74323 35.7693 4.74323C36.599 4.74323 37.1966 4.93179 37.5621 5.30892C37.9334 5.68605 38.1365 6.30977 38.1713 7.18007C38.1829 7.49337 38.1858 7.87921 38.18 8.33756C38.1742 8.79012 38.1655 9.26008 38.1539 9.74745H36.8572C36.8746 9.28909 36.8862 8.82783 36.892 8.36367C36.8978 7.89371 36.892 7.42955 36.8746 6.97119C36.8572 6.58826 36.7585 6.30977 36.5787 6.13571C36.3988 5.95584 36.1261 5.86591 35.7606 5.86591C35.3719 5.86591 35.0934 5.95584 34.9251 6.13571C34.7568 6.30977 34.6611 6.58826 34.6379 6.97119C34.6089 7.39474 34.5944 7.82119 34.5944 8.25053C34.6002 8.67988 34.6147 9.11213 34.6379 9.54728C34.6495 10.023 34.7104 10.3886 34.8207 10.6439C34.9367 10.8933 35.1659 11.0616 35.5082 11.1486L36.4133 11.3662C36.8949 11.4764 37.2633 11.6534 37.5186 11.8971C37.7739 12.135 37.9508 12.4454 38.0495 12.8283C38.1539 13.2054 38.2148 13.658 38.2322 14.186C38.2438 14.5109 38.2497 14.7923 38.2497 15.0302C38.2497 15.2623 38.2468 15.4885 38.2409 15.709C38.2351 15.9295 38.2293 16.1848 38.2235 16.4749C38.1887 17.3452 37.9828 17.9718 37.6056 18.3547C37.2343 18.7376 36.6251 18.9291 35.778 18.9291Z" fill="#D7E1E7"/>
<defs>
<radialGradient id="paint0_radial_608_4343" cx="0" cy="0" r="1" gradientUnits="userSpaceOnUse" gradientTransform="translate(4.74848 3.50257) rotate(68.4649) scale(35.4996 39.118)">
<stop offset="0.21" stop-color="#00B7C9"/>
<stop offset="1" stop-color="#F59DEF"/>
</radialGradient>
<linearGradient id="paint1_linear_608_4343" x1="24.2084" y1="22.4804" x2="12.3402" y2="-0.460908" gradientUnits="userSpaceOnUse">
<stop offset="0.6" stop-color="#F59DEF"/>
<stop offset="0.97" stop-color="#090D28"/>
</linearGradient>
<linearGradient id="paint2_linear_608_4343" x1="2.17575" y1="17.1674" x2="18.02" y2="24.1813" gradientUnits="userSpaceOnUse">
<stop stop-color="#F59DEF"/>
<stop offset="1" stop-color="#00B7C9"/>
</linearGradient>
</defs>
</svg>
