<svg width="16" height="16" viewBox="0 0 16 16" fill="none" xmlns="http://www.w3.org/2000/svg">
<path d="M14.6672 9.33333C14.6672 11.9107 12.5779 14 10.0005 14C7.4232 14 5.33386 11.9107 5.33386 9.33333C5.33386 6.756 7.4232 4.66667 10.0005 4.66667C12.5779 4.66667 14.6672 6.756 14.6672 9.33333Z" fill="#7DADB1"/>
<path d="M9.83255 4.0026C6.96476 4.09133 4.6672 6.44402 4.6672 9.33333C4.6672 10.0009 4.78985 10.6398 5.01386 11.2288C2.9104 10.7761 1.33386 8.90548 1.33386 6.66667C1.33386 4.08934 3.4232 2 6.00053 2C7.58749 2 8.98944 2.79214 9.83255 4.0026Z" fill="#7DADB1"/>
</svg>
