<svg width="16" height="10" viewBox="0 0 16 10" fill="none" xmlns="http://www.w3.org/2000/svg">
<path d="M15.1214 8.56179C15.1219 8.57342 15.1222 8.58511 15.1222 8.59687C15.1222 9.01109 14.7864 9.34687 14.3722 9.34687L8.39806 9.34685C7.98384 9.34685 7.64806 9.01106 7.64806 8.59685C7.64806 8.18263 7.98385 7.84685 8.39806 7.84685L12.7405 7.84687L9.06455 3.74052L6.57746 6.51882C6.43999 6.67238 6.24539 6.7626 6.03937 6.76829C5.83335 6.77399 5.63406 6.69465 5.48833 6.54891L0.219674 1.28033C-0.0732217 0.987442 -0.0732249 0.512568 0.219666 0.219673C0.512557 -0.0732213 0.987431 -0.0732251 1.28033 0.219666L5.98851 4.92778L8.50575 2.11582C8.64802 1.95689 8.85124 1.86606 9.06455 1.86606C9.27786 1.86606 9.48108 1.95689 9.62336 2.11582L13.6214 6.58192L13.6213 2.62267C13.6213 2.20846 13.9571 1.87267 14.3713 1.87267C14.7856 1.87267 15.1213 2.20845 15.1213 2.62266L15.1214 8.56179Z" fill="#F5CB9D"/>
</svg>
