<svg width="14" height="14" viewBox="0 0 14 14" fill="none" xmlns="http://www.w3.org/2000/svg">
<path fill-rule="evenodd" clip-rule="evenodd" d="M5.5565 0.772534C5.87825 0.289898 6.41991 0 7 0C7.58009 0 8.12175 0.289898 8.44347 0.772534L8.84254 1.37112C9.04442 1.67396 9.41269 1.82019 9.76738 1.73835L10.2596 1.62475C10.8523 1.48798 11.4736 1.66617 11.9037 2.09627C12.3339 2.52637 12.512 3.14769 12.3752 3.74037L12.2616 4.23265C12.1798 4.58729 12.326 4.95556 12.6289 5.15745L13.2275 5.5565C13.7101 5.87825 14 6.41991 14 7C14 7.58009 13.7101 8.12175 13.2275 8.44347L12.6289 8.84254C12.326 9.04442 12.1798 9.41269 12.2616 9.76738L12.3752 10.2596C12.512 10.8523 12.3339 11.4736 11.9037 11.9037C11.4736 12.3339 10.8523 12.512 10.2596 12.3752L9.76738 12.2616C9.41269 12.1798 9.04442 12.326 8.84254 12.6289L8.44347 13.2275C8.12175 13.7101 7.58009 14 7 14C6.41991 14 5.87825 13.7101 5.5565 13.2275L5.15745 12.6289C4.95556 12.326 4.58729 12.1798 4.23265 12.2616L3.74037 12.3752C3.14769 12.512 2.52637 12.3339 2.09627 11.9037C1.66617 11.4736 1.48798 10.8523 1.62475 10.2596L1.73835 9.76738C1.82019 9.41269 1.67396 9.04442 1.37112 8.84254L0.772534 8.44347C0.289898 8.12175 0 7.58009 0 7C0 6.41991 0.289898 5.87825 0.772534 5.5565L1.37112 5.15745C1.67396 4.95556 1.82019 4.58729 1.73835 4.23265L1.62475 3.74037C1.48798 3.1477 1.66617 2.52637 2.09627 2.09627C2.52637 1.66617 3.14769 1.48798 3.74037 1.62475L4.23265 1.73835C4.58729 1.82019 4.95556 1.67396 5.15745 1.37112L5.5565 0.772534ZM4.8125 7C4.8125 5.79187 5.79187 4.8125 7 4.8125C8.20813 4.8125 9.1875 5.79187 9.1875 7C9.1875 8.20813 8.20813 9.1875 7 9.1875C5.79187 9.1875 4.8125 8.20813 4.8125 7Z" fill="white"/>
</svg>
