<svg width="98" height="24" viewBox="0 0 98 24" fill="none" xmlns="http://www.w3.org/2000/svg">
<path d="M23.9787 10.273C23.5869 7.69123 21.1826 2.23143 14.7003 1.04636C8.35187 -0.114252 3.71346 4.12427 2.07867 6.52612C3.82883 4.93075 7.47629 2.7939 11.2997 5.61735C13.2738 7.07521 15.2025 10.4625 17.1354 14.6535C22.8116 26.9613 24.9519 16.6851 23.9787 10.273Z" fill="url(#paint0_radial_308_12951)"/>
<path d="M5.46364 8.91862C4.95984 5.97287 6.73715 4.53103 7.73076 4.26298C5.46364 4.09367 1.18165 5.55386 0.216027 10.2307C-0.690412 14.6208 1.47522 17.073 2.65076 17.8278C3.36448 18.2228 5.61739 18.8749 8.94249 18.4347C13.0989 17.8845 14.9939 19.6901 15.7076 20.4519C16.4214 21.2137 18.2359 23.8148 17.9328 22.9913C16.7304 19.7256 14.994 18.5685 14.5742 18.1029C14.2383 17.7305 11.1454 15.4718 9.662 14.3996C8.52265 13.5761 5.96744 11.8644 5.46364 8.91862Z" fill="url(#paint1_linear_308_12951)"/>
<path d="M17.9539 23.1183C16.6034 21.8768 13.1216 19.3472 9.99798 19.161C6.09351 18.9282 4.68707 18.6531 3.25963 18.124C2.66349 17.9031 2.53691 17.7598 2.52091 17.739C2.5187 17.7373 2.518 17.7364 2.51901 17.7364C2.51901 17.7364 2.51958 17.7373 2.52091 17.739C2.5486 17.7604 2.81381 17.9065 2.96574 17.9548C3.30861 18.1311 4.39549 18.477 5.94048 18.5617C7.13827 18.6273 8.30279 18.4627 9.36213 18.3712C10.0108 18.3152 10.1598 18.2866 11.1254 18.3501C11.266 18.3593 11.8385 18.425 12.364 18.5405C12.7049 18.6155 13.1407 18.7521 13.5876 18.9282C14.5126 19.2926 15.6387 20.2335 16.0646 20.8328L17.9539 23.1183Z" fill="url(#paint2_linear_308_12951)"/>
<path d="M90.22 18.7989L89.2192 4.87415H90.5681L90.8902 10.2526L91.2557 17.5979H91.6473L91.9693 10.2526L92.535 4.96118H94.6934L95.2678 10.2526L95.555 17.5979H95.9466L96.3295 10.2526L96.6603 4.87415H98.0005L96.991 18.7989H94.615L94.1973 14.3169L93.8318 6.12738H93.3879L93.0137 14.3169L92.5872 18.7989H90.22Z" fill="#D7E1E7"/>
<path d="M84.4058 18.9294C83.5355 18.9294 82.9089 18.7438 82.5259 18.3724C82.1488 17.9953 81.9515 17.3745 81.9341 16.51C81.9225 15.7093 81.9109 14.9231 81.8993 14.1515C81.8935 13.3798 81.8906 12.6081 81.8906 11.8365C81.8906 11.0648 81.8935 10.2931 81.8993 9.52148C81.9109 8.74981 81.9225 7.96364 81.9341 7.16297C81.9515 6.29847 82.1488 5.68055 82.5259 5.30923C82.9089 4.9321 83.5355 4.74353 84.4058 4.74353C85.2703 4.74353 85.8911 4.9321 86.2682 5.30923C86.6512 5.68055 86.8484 6.29847 86.86 7.16297C86.8774 7.96364 86.8891 8.75271 86.8949 9.53018C86.9065 10.3076 86.9123 11.0793 86.9123 11.8452C86.9123 12.611 86.9065 13.3798 86.8949 14.1515C86.8891 14.9231 86.8774 15.7093 86.86 16.51C86.8484 17.3745 86.6512 17.9953 86.2682 18.3724C85.8911 18.7438 85.2703 18.9294 84.4058 18.9294ZM84.4058 17.798C84.8003 17.798 85.0846 17.7168 85.2587 17.5543C85.4327 17.3861 85.5227 17.1105 85.5285 16.7276C85.5517 15.9037 85.5662 15.0827 85.572 14.2646C85.5836 13.4407 85.5894 12.6197 85.5894 11.8017C85.5894 10.9836 85.5836 10.1713 85.572 9.36482C85.5604 8.55254 85.5459 7.74607 85.5285 6.94539C85.5227 6.56246 85.4298 6.28686 85.25 6.11861C85.0759 5.95035 84.7945 5.86622 84.4058 5.86622C84.0171 5.86622 83.7328 5.95035 83.5529 6.11861C83.3788 6.28686 83.286 6.56246 83.2744 6.94539C83.2512 7.74607 83.2338 8.55254 83.2222 9.36482C83.2106 10.1713 83.2048 10.9836 83.2048 11.8017C83.2106 12.6197 83.2193 13.4407 83.2309 14.2646C83.2425 15.0827 83.257 15.9037 83.2744 16.7276C83.286 17.1105 83.3788 17.3861 83.5529 17.5543C83.7328 17.7168 84.0171 17.798 84.4058 17.798Z" fill="#D7E1E7"/>
<path d="M75.8013 18.7989V4.87415H77.1329V17.5979H79.9962V18.7989H75.8013Z" fill="#D7E1E7"/>
<path d="M69.3853 18.7989V4.87415H73.5801V6.07516H70.7168V11.1751H73.406V12.3761H70.7168V18.7989H69.3853Z" fill="#D7E1E7"/>
<path d="M62.0001 18.7989V4.87415H64.2716C65.1245 4.87415 65.7424 5.05981 66.1254 5.43114C66.5083 5.80246 66.7172 6.41458 66.752 7.26747C66.7694 7.76064 66.781 8.2248 66.7868 8.65995C66.7926 9.0951 66.7926 9.51865 66.7868 9.93059C66.781 10.3367 66.7694 10.7458 66.752 11.1577C66.7288 11.7437 66.6243 12.2137 66.4387 12.5676C66.253 12.9215 65.9658 13.1768 65.5771 13.3335L67.0131 18.7989H65.5858L64.2977 13.5597H63.3317V18.7989H62.0001ZM63.3317 12.3587H64.2629C64.6516 12.3587 64.9359 12.2659 65.1158 12.0802C65.2957 11.8946 65.3943 11.6074 65.4117 11.2186C65.4291 10.7835 65.4407 10.3396 65.4465 9.88707C65.4523 9.43452 65.4523 8.98486 65.4465 8.53811C65.4407 8.08555 65.4291 7.6417 65.4117 7.20655C65.3943 6.81782 65.2957 6.53352 65.1158 6.35366C64.9417 6.16799 64.6603 6.07516 64.2716 6.07516H63.3317V12.3587Z" fill="#D7E1E7"/>
<path d="M55.4654 18.7989V4.87415H59.6602V6.07516H56.797V11.1751H59.4862V12.3761H56.797V17.5979H59.6602V18.7989H55.4654Z" fill="#D7E1E7"/>
<path d="M48.285 18.7989V4.87415H50.5565C51.4094 4.87415 52.0273 5.05981 52.4102 5.43114C52.7931 5.80246 53.002 6.41458 53.0368 7.26747C53.06 8.01013 53.0716 8.67736 53.0716 9.26916C53.0716 9.85516 53.06 10.4615 53.0368 11.0881C53.002 11.941 52.7902 12.5531 52.4015 12.9244C52.0186 13.2957 51.4007 13.4814 50.5478 13.4814H49.6165V18.7989H48.285ZM49.6165 12.2804H50.5478C50.9365 12.2804 51.2208 12.1905 51.4007 12.0106C51.5805 11.8249 51.6791 11.5377 51.6966 11.149C51.714 10.7139 51.7256 10.2758 51.7314 9.83486C51.7372 9.3939 51.7372 8.95585 51.7314 8.5207C51.7256 8.07975 51.714 7.6417 51.6966 7.20655C51.6791 6.81782 51.5805 6.53352 51.4007 6.35366C51.2266 6.16799 50.9452 6.07516 50.5565 6.07516H49.6165V12.2804Z" fill="#D7E1E7"/>
<path d="M43.1395 18.9295C42.2692 18.9295 41.6455 18.7438 41.2683 18.3725C40.897 17.9954 40.7055 17.3746 40.6939 16.5101C40.6707 14.578 40.6591 12.6401 40.6591 10.6965C40.6591 8.74698 40.6707 6.80621 40.6939 4.87415H42.0255C42.0139 6.16219 42.0023 7.47344 41.9907 8.8079C41.9849 10.1366 41.9849 11.4652 41.9907 12.7939C41.9965 14.1225 42.0052 15.4338 42.0168 16.7276C42.0168 17.0932 42.1096 17.363 42.2953 17.537C42.4809 17.7111 42.7623 17.7981 43.1395 17.7981C43.5166 17.7981 43.7922 17.7111 43.9663 17.537C44.1461 17.363 44.2361 17.0932 44.2361 16.7276C44.2477 15.4338 44.2564 14.1225 44.2622 12.7939C44.2738 11.4652 44.2767 10.1366 44.2709 8.8079C44.2709 7.47344 44.2593 6.16219 44.2361 4.87415H45.5763C45.5995 6.80621 45.6111 8.74698 45.6111 10.6965C45.6111 12.6401 45.5995 14.578 45.5763 16.5101C45.5705 17.3746 45.3791 17.9954 45.0019 18.3725C44.6248 18.7438 44.004 18.9295 43.1395 18.9295Z" fill="#D7E1E7"/>
<path d="M35.7782 18.9294C34.9195 18.9294 34.3016 18.738 33.9245 18.355C33.5532 17.9721 33.3501 17.3455 33.3153 16.4752C33.3095 16.1387 33.3037 15.8283 33.2979 15.544C33.2979 15.2539 33.3008 14.9667 33.3066 14.6824C33.3182 14.3923 33.3298 14.0789 33.3414 13.7424H34.6207C34.5975 14.2414 34.583 14.7404 34.5772 15.2393C34.5772 15.7383 34.5917 16.2228 34.6207 16.6927C34.6381 17.0699 34.7368 17.3484 34.9166 17.5282C35.0965 17.7081 35.3808 17.798 35.7695 17.798C36.1525 17.798 36.4252 17.7081 36.5876 17.5282C36.7559 17.3484 36.8545 17.0699 36.8835 16.6927C36.9009 16.3794 36.9125 16.1009 36.9183 15.8573C36.9241 15.6078 36.9212 15.3525 36.9096 15.0914C36.9038 14.8245 36.8951 14.5228 36.8835 14.1863C36.8661 13.7743 36.8023 13.4291 36.6921 13.1506C36.5818 12.8721 36.3642 12.6894 36.0393 12.6023L35.0646 12.35C34.6004 12.2339 34.2407 12.0599 33.9854 11.8278C33.7359 11.5957 33.559 11.294 33.4545 10.9227C33.3559 10.5455 33.2979 10.0872 33.2805 9.54759C33.2747 9.18786 33.2747 8.79913 33.2805 8.38138C33.2863 7.96364 33.2921 7.5604 33.2979 7.17167C33.3153 6.59147 33.4052 6.12441 33.5677 5.77048C33.7301 5.41076 33.9912 5.14967 34.3509 4.98721C34.7107 4.82476 35.1835 4.74353 35.7695 4.74353C36.5992 4.74353 37.1968 4.9321 37.5624 5.30923C37.9337 5.68636 38.1368 6.31007 38.1716 7.18037C38.1832 7.49368 38.1861 7.87951 38.1803 8.33787C38.1745 8.79043 38.1658 9.26039 38.1542 9.74776H36.8574C36.8748 9.2894 36.8864 8.82814 36.8922 8.36398C36.898 7.89402 36.8922 7.42986 36.8748 6.9715C36.8574 6.58857 36.7588 6.31007 36.5789 6.13601C36.3991 5.95615 36.1264 5.86622 35.7608 5.86622C35.3721 5.86622 35.0936 5.95615 34.9253 6.13601C34.7571 6.31007 34.6614 6.58857 34.6381 6.9715C34.6091 7.39504 34.5946 7.82149 34.5946 8.25084C34.6004 8.68019 34.6149 9.11244 34.6381 9.54759C34.6497 10.0234 34.7107 10.3889 34.8209 10.6442C34.9369 10.8937 35.1661 11.0619 35.5084 11.1489L36.4136 11.3665C36.8951 11.4768 37.2636 11.6537 37.5188 11.8974C37.7741 12.1353 37.9511 12.4457 38.0497 12.8286C38.1542 13.2057 38.2151 13.6583 38.2325 14.1863C38.2441 14.5112 38.2499 14.7926 38.2499 15.0305C38.2499 15.2626 38.247 15.4888 38.2412 15.7093C38.2354 15.9298 38.2296 16.1851 38.2238 16.4752C38.189 17.3455 37.983 17.9721 37.6059 18.355C37.2345 18.738 36.6253 18.9294 35.7782 18.9294Z" fill="#D7E1E7"/>
<defs>
<radialGradient id="paint0_radial_308_12951" cx="0" cy="0" r="1" gradientUnits="userSpaceOnUse" gradientTransform="translate(4.74848 3.50242) rotate(68.4649) scale(35.4996 39.118)">
<stop offset="0.21" stop-color="#F5CB9D"/>
<stop offset="1" stop-color="#2D9DA8"/>
</radialGradient>
<linearGradient id="paint1_linear_308_12951" x1="24.2084" y1="22.4803" x2="12.3402" y2="-0.461061" gradientUnits="userSpaceOnUse">
<stop offset="0.6" stop-color="#2D9DA8"/>
<stop offset="0.97" stop-color="#123E42"/>
</linearGradient>
<linearGradient id="paint2_linear_308_12951" x1="2.17575" y1="17.1672" x2="18.02" y2="24.1812" gradientUnits="userSpaceOnUse">
<stop stop-color="#013334"/>
<stop offset="1" stop-color="#E9C49A"/>
</linearGradient>
</defs>
</svg>
