<svg width="19" height="19" viewBox="0 0 19 19" fill="none" xmlns="http://www.w3.org/2000/svg">
<path d="M17.1905 9.09524C17.1905 4.62424 13.5662 1 9.09524 1C4.62424 1 1 4.62424 1 9.09524C1 13.5662 4.62424 17.1905 9.09524 17.1905" stroke="#8AABB2" stroke-width="1.5" stroke-linecap="round" stroke-linejoin="round"/>
<path d="M9.90502 1.04047C9.90502 1.04047 12.3336 4.23809 12.3336 9.09523M8.28597 17.15C8.28597 17.15 5.8574 13.9524 5.8574 9.09523C5.8574 4.23809 8.28597 1.04047 8.28597 1.04047M1.51025 11.9286H9.09549M1.51025 6.2619H16.6807M14.7622 13.5476V14.7619H15.9764" stroke="#8AABB2" stroke-linecap="round" stroke-linejoin="round"/>
<path d="M14.7615 18C15.6203 18 16.444 17.6588 17.0512 17.0516C17.6585 16.4443 17.9996 15.6207 17.9996 14.7619C17.9996 13.9031 17.6585 13.0795 17.0512 12.4722C16.444 11.865 15.6203 11.5238 14.7615 11.5238C13.9027 11.5238 13.0791 11.865 12.4719 12.4722C11.8646 13.0795 11.5234 13.9031 11.5234 14.7619C11.5234 15.6207 11.8646 16.4443 12.4719 17.0516C13.0791 17.6588 13.9027 18 14.7615 18Z" stroke="#8AABB2" stroke-linecap="round" stroke-linejoin="round"/>
</svg>
