<svg width="16" height="16" viewBox="0 0 16 16" fill="none" xmlns="http://www.w3.org/2000/svg">
<path d="M5.16715 1.83337C5.16715 1.55723 4.94329 1.33337 4.66715 1.33337C4.39101 1.33337 4.16715 1.55723 4.16715 1.83337V6.66671H3.83382C2.8213 6.66671 2.00049 7.48751 2.00049 8.50004V10.8334C2.00049 11.8459 2.8213 12.6667 3.83382 12.6667H4.16715V14.1667C4.16715 14.4428 4.39101 14.6667 4.66715 14.6667C4.94329 14.6667 5.16715 14.4428 5.16715 14.1667V12.6667H5.50049C6.51301 12.6667 7.33382 11.8459 7.33382 10.8334V8.50004C7.33382 7.48751 6.51301 6.66671 5.50049 6.66671H5.16715V1.83337Z" fill="#F5CB9D"/>
<path d="M11.8338 1.83338C11.8338 1.55724 11.61 1.33338 11.3338 1.33338C11.0577 1.33338 10.8338 1.55724 10.8338 1.83338V3.33337H10.5005C9.48796 3.33337 8.66716 4.15419 8.66716 5.16671V10.8334C8.66716 11.8459 9.48796 12.6667 10.5005 12.6667H10.8338V14.1667C10.8338 14.4428 11.0577 14.6667 11.3338 14.6667C11.61 14.6667 11.8338 14.4428 11.8338 14.1667V12.6667H12.1672C13.1797 12.6667 14.0005 11.8459 14.0005 10.8334V5.16671C14.0005 4.15419 13.1797 3.33337 12.1672 3.33337H11.8338V1.83338Z" fill="#F5CB9D"/>
</svg>
