<svg width="102" height="57" viewBox="0 0 102 57" fill="none" xmlns="http://www.w3.org/2000/svg">
<g clip-path="url(#clip0_1743_76716)">
<path d="M19.1915 11.1125C34.4673 -3.7123 59.2422 -3.7123 74.518 11.1125L76.355 12.8848C77.1284 13.6272 77.1284 14.8247 76.355 15.5671L70.0706 21.6743C69.6839 22.0335 69.0796 22.0335 68.6929 21.6743L66.155 19.2074C55.4957 8.86123 38.2137 8.86123 27.5545 19.2074L24.8474 21.8419C24.4607 22.2011 23.8564 22.2011 23.4697 21.8419L17.1611 15.7587C16.3877 15.0163 16.3877 13.8188 17.1611 13.0764L19.1915 11.1125ZM87.5218 23.7339L93.1294 29.1705C93.9028 29.9129 93.9028 31.1104 93.1294 31.8528L67.8711 56.3532C67.0976 57.0957 65.8649 57.0957 65.1156 56.3532L47.2052 38.9658C47.0118 38.7743 46.6976 38.7743 46.5043 38.9658L28.5938 56.3532C27.8204 57.0957 26.5877 57.0957 25.8384 56.3532L0.580095 31.8528C-0.193365 31.1104 -0.193365 29.9129 0.580095 29.1705L6.18768 23.7339C6.96114 22.9915 8.19384 22.9915 8.94313 23.7339L26.8536 41.1213C27.0469 41.3129 27.3611 41.3129 27.5545 41.1213L45.4649 23.7339C46.2384 22.9915 47.4711 22.9915 48.2204 23.7339L66.1308 41.1213C66.3242 41.3129 66.6384 41.3129 66.8318 41.1213L84.7422 23.7339C85.5156 22.9915 86.7483 22.9915 87.5218 23.7339Z" fill="#3B99FC"/>
</g>
<defs>
<clipPath id="clip0_1743_76716">
<rect width="102" height="57" fill="white"/>
</clipPath>
</defs>
</svg>
