<svg width="1116" height="235" viewBox="0 0 1116 235" fill="none" xmlns="http://www.w3.org/2000/svg">
<g opacity="0.02">
<path d="M252.57 99.008C248.443 71.9155 223.118 14.6214 154.84 2.18553C87.9712 -9.99373 39.1144 34.4845 21.895 59.6891C40.3295 42.9476 78.7486 20.5238 119.021 50.1526C139.815 65.4512 160.13 100.997 180.489 144.976C240.276 274.132 262.821 166.295 252.57 99.008Z" fill="url(#paint0_radial_778_8)"/>
<path d="M57.5492 84.7955C52.2426 53.8834 70.9631 38.753 81.4289 35.9401C57.5492 34.1634 12.4465 49.4864 2.27555 98.5639C-7.27205 144.634 15.5388 170.366 27.9208 178.287C35.4385 182.432 59.1687 189.275 94.1922 184.656C137.972 178.882 157.932 197.829 165.45 205.824C172.968 213.818 192.081 241.113 188.888 232.472C176.223 198.202 157.933 186.059 153.511 181.174C149.974 177.265 117.396 153.563 101.771 142.312C89.7701 133.67 62.8558 115.708 57.5492 84.7955Z" fill="url(#paint1_linear_778_8)"/>
<path d="M189.11 233.804C174.885 220.776 138.211 194.231 105.31 192.277C64.1837 189.834 49.3695 186.947 34.3341 181.396C28.0549 179.077 26.7216 177.574 26.5532 177.355C26.5298 177.337 26.5225 177.328 26.5331 177.328C26.5331 177.328 26.5391 177.337 26.5532 177.355C26.8447 177.58 29.6382 179.113 31.2386 179.619C34.8501 181.47 46.2982 185.1 62.5718 185.988C75.1882 186.677 87.4542 184.949 98.6124 183.989C105.445 183.402 107.015 183.101 117.186 183.767C118.666 183.864 124.697 184.553 130.231 185.766C133.822 186.553 138.412 187.987 143.12 189.834C152.862 193.658 164.724 203.531 169.21 209.821L189.11 233.804Z" fill="url(#paint2_linear_778_8)"/>
<path d="M340.226 201.173C331.093 201.173 324.578 199.225 320.682 195.328C316.785 191.31 314.654 184.734 314.289 175.602C314.167 170.366 314.106 165.617 314.106 161.355C314.106 156.971 314.289 152.161 314.654 146.925H327.988C327.745 152.161 327.623 157.397 327.623 162.633C327.623 167.869 327.745 172.923 327.988 177.794C328.232 181.812 329.267 184.795 331.093 186.744C332.92 188.57 335.903 189.484 340.043 189.484C344.062 189.484 346.923 188.57 348.628 186.744C350.455 184.795 351.49 181.812 351.733 177.794C351.977 172.923 352.099 168.661 352.099 165.008C352.099 161.355 351.977 156.849 351.733 151.491C351.611 147.229 350.942 143.637 349.724 140.715C348.628 137.67 346.314 135.722 342.783 134.87L332.554 132.312C325.248 130.486 320.377 127.259 317.942 122.632C315.507 117.883 314.167 111.246 313.924 102.722C313.924 98.9474 313.924 94.929 313.924 90.667C313.924 86.2833 313.984 82.0213 314.106 77.8811C314.35 68.7484 316.42 62.2337 320.317 58.337C324.213 54.4404 330.789 52.4921 340.043 52.4921C348.689 52.4921 354.96 54.5013 358.857 58.5197C362.753 62.4163 364.884 68.931 365.25 78.0638C365.371 81.2298 365.371 85.2482 365.25 90.1191C365.25 94.8681 365.189 99.7998 365.067 104.914H351.551C351.672 100.043 351.733 95.1725 351.733 90.3017C351.855 85.4309 351.794 80.5601 351.551 75.6893C351.307 68.0178 347.471 64.182 340.043 64.182C335.903 64.182 332.92 65.1562 331.093 67.1045C329.388 68.931 328.414 71.7926 328.171 75.6893C327.927 80.1948 327.805 84.7003 327.805 89.2058C327.805 93.7113 327.927 98.2168 328.171 102.722C328.292 107.837 328.901 111.733 329.997 114.412C331.215 116.969 333.65 118.735 337.303 119.709L346.802 121.901C354.351 123.728 359.344 127.076 361.779 131.947C364.215 136.696 365.554 143.211 365.798 151.491C365.919 154.901 365.98 157.884 365.98 160.441C365.98 162.877 365.98 165.251 365.98 167.565C365.98 169.879 365.919 172.557 365.798 175.602C365.432 184.734 363.301 191.31 359.405 195.328C355.508 199.225 349.115 201.173 340.226 201.173Z" fill="white"/>
<path d="M434.459 201.173C425.448 201.173 418.933 199.225 414.915 195.328C411.018 191.432 409.009 184.978 408.887 175.967C408.4 135.174 408.4 94.4419 408.887 53.7707H422.952C422.586 74.1063 422.404 94.8681 422.404 116.056C422.525 137.122 422.647 157.823 422.769 178.159C422.769 185.709 426.666 189.484 434.459 189.484C442.252 189.484 446.149 185.709 446.149 178.159C446.271 157.823 446.332 137.122 446.332 116.056C446.453 94.8681 446.392 74.1063 446.149 53.7707H460.213C460.579 94.4419 460.579 135.174 460.213 175.967C460.092 184.978 458.021 191.432 454.003 195.328C450.106 199.225 443.592 201.173 434.459 201.173Z" fill="white"/>
<path d="M504.551 199.895V53.7707H528.479C537.369 53.7707 543.822 55.719 547.841 59.6156C551.859 63.5123 554.051 69.9661 554.416 78.9771C554.782 86.7704 554.964 93.7721 554.964 99.9824C554.964 106.071 554.782 112.403 554.416 118.979C554.051 127.99 551.859 134.443 547.841 138.34C543.822 142.237 537.308 144.185 528.297 144.185H518.616V199.895H504.551ZM518.616 131.582H528.297C532.437 131.582 535.42 130.608 537.247 128.659C539.195 126.711 540.23 123.728 540.352 119.709C540.961 105.827 540.961 92.0065 540.352 78.2465C540.23 74.228 539.195 71.2447 537.247 69.2963C535.42 67.348 532.498 66.3739 528.479 66.3739H518.616V131.582Z" fill="white"/>
<path d="M594.338 199.895V53.7707H638.358V66.3739H608.402V119.892H636.531V132.495H608.402V187.292H638.358V199.895H594.338Z" fill="white"/>
<path d="M677.168 199.895V53.7707H701.096C709.985 53.7707 716.439 55.719 720.457 59.6156C724.476 63.5123 726.667 69.9661 727.033 78.9771C727.398 86.7704 727.581 93.8939 727.581 100.348C727.581 106.802 727.398 113.255 727.033 119.709C726.667 131.764 722.588 139.375 714.795 142.541L729.773 199.895H714.795L701.461 144.916H691.232V199.895H677.168ZM691.232 132.312H700.913C705.053 132.312 708.037 131.338 709.863 129.39C711.811 127.442 712.846 124.458 712.968 120.44C713.577 106.436 713.577 92.3718 712.968 78.2465C712.846 74.228 711.811 71.2447 709.863 69.2963C708.037 67.348 705.114 66.3739 701.096 66.3739H691.232V132.312Z" fill="white"/>
<path d="M768.381 199.895V53.7707H812.401V66.3739H782.446V119.892H810.575V132.495H782.446V199.895H768.381Z" fill="white"/>
<path d="M851.39 199.895V53.7707H865.454V187.292H895.592V199.895H851.39Z" fill="white"/>
<path d="M958.029 201.173C948.896 201.173 942.32 199.225 938.302 195.328C934.284 191.432 932.214 184.978 932.092 175.967C931.726 159.163 931.544 142.785 931.544 126.833C931.544 110.881 931.726 94.5028 932.092 77.6985C932.214 68.6875 934.284 62.2337 938.302 58.337C942.32 54.4404 948.896 52.4921 958.029 52.4921C967.04 52.4921 973.494 54.4404 977.39 58.337C981.409 62.2337 983.54 68.6875 983.783 77.6985C984.027 94.6245 984.149 111.064 984.149 127.015C984.149 142.846 984.027 159.163 983.783 175.967C983.54 184.978 981.409 191.432 977.39 195.328C973.494 199.225 967.04 201.173 958.029 201.173ZM958.029 189.484C962.169 189.484 965.091 188.631 966.796 186.926C968.623 185.1 969.597 182.177 969.719 178.159C970.206 160.989 970.389 143.82 970.267 126.65C970.267 109.359 970.084 92.3109 969.719 75.5066C969.597 71.4882 968.623 68.6266 966.796 66.9218C964.97 65.0953 962.047 64.182 958.029 64.182C953.889 64.182 950.844 65.0953 948.896 66.9218C947.069 68.6266 946.156 71.4882 946.156 75.5066C945.669 92.3109 945.426 109.359 945.426 126.65C945.426 143.82 945.669 160.989 946.156 178.159C946.156 182.177 947.069 185.1 948.896 186.926C950.844 188.631 953.889 189.484 958.029 189.484Z" fill="white"/>
<path d="M1033.44 199.895L1023.03 53.7707H1037.28L1040.56 110.211L1044.4 187.292H1047.87L1052.07 110.211L1059.01 54.6839H1079.83L1086.78 110.211L1090.98 187.292H1094.45L1098.47 110.211L1101.94 53.7707H1116L1105.41 199.895H1080.75L1076 152.952L1071.07 66.9218H1067.78L1062.85 152.952L1058.1 199.895H1033.44Z" fill="white"/>
</g>
<defs>
<radialGradient id="paint0_radial_778_8" cx="0" cy="0" r="1" gradientUnits="userSpaceOnUse" gradientTransform="translate(50.0163 27.9589) rotate(68.3917) scale(372.714 411.826)">
<stop offset="0.21" stop-color="#00B7C9"/>
<stop offset="1" stop-color="#F59DEF"/>
</radialGradient>
<linearGradient id="paint1_linear_778_8" x1="254.99" y1="227.109" x2="130.716" y2="-14.0121" gradientUnits="userSpaceOnUse">
<stop offset="0.6" stop-color="#F59DEF"/>
<stop offset="0.97" stop-color="#090D28"/>
</linearGradient>
<linearGradient id="paint2_linear_778_8" x1="22.9175" y1="171.355" x2="189.602" y2="245.419" gradientUnits="userSpaceOnUse">
<stop stop-color="#F59DEF"/>
<stop offset="1" stop-color="#00B7C9"/>
</linearGradient>
</defs>
</svg>
